<svg width="196" height="23" viewBox="0 0 196 23" fill="none" xmlns="http://www.w3.org/2000/svg">
<path d="M15 5.56H0.984V2.392H5.928V0.639999H10.056V2.392H15V5.56ZM22.824 5.752V9.688H20.424V16.288H16.368V0.999999H20.424V5.752H22.824ZM7.992 14.584C6.824 14.584 5.76 14.424 4.8 14.104C3.856 13.784 3.104 13.304 2.544 12.664C1.984 12.024 1.704 11.256 1.704 10.36C1.704 9.464 1.984 8.696 2.544 8.056C3.104 7.416 3.856 6.936 4.8 6.616C5.76 6.296 6.824 6.136 7.992 6.136C9.16 6.136 10.216 6.296 11.16 6.616C12.12 6.936 12.88 7.416 13.44 8.056C14 8.696 14.28 9.464 14.28 10.36C14.28 11.256 14 12.024 13.44 12.664C12.88 13.304 12.12 13.784 11.16 14.104C10.216 14.424 9.16 14.584 7.992 14.584ZM7.992 9.064C7.272 9.064 6.688 9.192 6.24 9.448C5.792 9.688 5.568 9.992 5.568 10.36C5.568 10.728 5.792 11.04 6.24 11.296C6.688 11.536 7.272 11.656 7.992 11.656C8.712 11.656 9.296 11.536 9.744 11.296C10.192 11.04 10.416 10.728 10.416 10.36C10.416 9.992 10.192 9.688 9.744 9.448C9.296 9.192 8.712 9.064 7.992 9.064ZM6.456 17.968H20.712V21.496H2.328V15.184H6.456V17.968ZM38.6139 4.432H24.5019V0.999999H42.7419V7.888H38.6139V4.432ZM35.7099 12.088V14.368H42.8379V21.736H38.7099V17.752H24.4059V14.368H31.6299V12.088H23.3019V8.68H44.0379V12.088H35.7099ZM55.6519 8.8C54.4359 10.432 52.9719 11.72 51.2599 12.664C49.5639 13.592 47.7559 14.064 45.8359 14.08V10.24C47.1959 10.24 48.4839 9.848 49.6999 9.064C50.9319 8.264 51.9719 7.16 52.8199 5.752C53.6679 4.328 54.2119 2.72 54.4519 0.927999L58.5799 1.576C58.3879 2.984 58.0119 4.336 57.4519 5.632L66.1879 10.888L64.0519 14.176L55.6519 8.8ZM45.4279 16.984H66.1639V20.776H45.4279V16.984ZM88.2898 17.032V20.776H67.5538V17.032H75.8818V13.816H68.4898V10.12H71.6098V5.2H68.7058V1.48H87.1378V5.2H84.2338V10.12H87.3538V13.816H79.9618V17.032H88.2898ZM75.6658 10.12H80.1778V5.2H75.6658V10.12ZM99.9998 10.96C98.8798 12.16 97.4718 13.096 95.7758 13.768C94.0798 14.424 92.2558 14.752 90.3038 14.752V11.008C91.4398 11.008 92.5198 10.824 93.5438 10.456C94.5838 10.088 95.4798 9.568 96.2318 8.896C96.9998 8.224 97.5438 7.44 97.8638 6.544H90.7358V2.824H97.9358V0.735999H102.112V2.824H109.36V6.544H102.28C102.168 7.056 102.04 7.504 101.896 7.888L110.176 11.488L108.448 14.848L99.9998 10.96ZM110.416 17.032V20.776H89.6798V17.032H110.416ZM132.206 0.999999V21.496H128.414V0.999999H132.206ZM123.254 1.096H126.998V21.136H123.254V12.544H121.598V8.704H123.254V1.096ZM117.47 17.08C118.302 17.08 119.15 17.024 120.014 16.912C120.894 16.784 121.638 16.608 122.246 16.384V19.792C121.67 20.032 120.902 20.216 119.942 20.344C118.982 20.472 118.038 20.536 117.11 20.536H112.166V9.28H116.99V4.936H112.166V1.48H120.734V12.688H115.934V17.08H117.47ZM153.852 0.999999V21.496H149.796V11.752H145.716V7.96H149.796V0.999999H153.852ZM143.268 5.2C143.22 6.96 143.06 8.632 142.788 10.216L148.764 18.112L145.476 20.392L141.396 14.776C140.58 16.616 139.54 18.032 138.276 19.024C137.028 20.016 135.628 20.52 134.076 20.536V16.456C135.068 16.344 135.94 15.816 136.692 14.872C137.444 13.912 138.036 12.608 138.468 10.96C138.9 9.296 139.14 7.376 139.188 5.2H134.652V1.48H147.636V5.2H143.268ZM160.066 22.096C158.626 20.544 157.514 18.88 156.73 17.104C155.946 15.312 155.554 13.352 155.554 11.224C155.554 9.096 155.946 7.144 156.73 5.368C157.514 3.576 158.626 1.904 160.066 0.352H164.362C162.922 1.856 161.786 3.528 160.954 5.368C160.138 7.208 159.73 9.16 159.73 11.224C159.73 13.288 160.138 15.24 160.954 17.08C161.786 18.92 162.922 20.592 164.362 22.096H160.066ZM175.07 8.776C173.918 9.816 172.518 10.632 170.87 11.224C169.238 11.816 167.51 12.12 165.686 12.136V8.44C167.302 8.408 168.798 8.08 170.174 7.456C171.55 6.816 172.534 5.968 173.126 4.912H166.046V1.24H184.526V4.912H177.614C177.55 5.136 177.446 5.416 177.302 5.752L185.366 8.8L183.83 12.16L175.07 8.776ZM185.654 17.368H177.35V21.976H173.222V17.368H164.918V13.624H185.654V17.368ZM186.204 22.096C187.644 20.592 188.772 18.92 189.588 17.08C190.42 15.24 190.836 13.288 190.836 11.224C190.836 9.16 190.42 7.208 189.588 5.368C188.772 3.528 187.644 1.856 186.204 0.352H190.5C191.94 1.904 193.052 3.576 193.836 5.368C194.62 7.144 195.012 9.096 195.012 11.224C195.012 13.352 194.62 15.312 193.836 17.104C193.052 18.88 191.94 20.544 190.5 22.096H186.204Z" fill="#4B5465"/>
</svg>
