<svg width="65" height="64" viewBox="0 0 65 64" fill="none" xmlns="http://www.w3.org/2000/svg">
<g id="icon_05">
<g id="Group">
<g id="Group_2">
<path id="Vector" d="M3.2666 22.3811H61.9333V59.5904H10.111C6.33193 59.5904 3.2666 56.5251 3.2666 52.746V22.3811Z" fill="#D3E1FF"/>
<path id="Vector_2" d="M10.4728 45.1781C13.328 45.1781 15.7919 46.8452 16.9555 49.2554V20.4843C16.9555 16.7052 13.8902 13.6399 10.111 13.6399C6.33193 13.6399 3.2666 16.7052 3.2666 20.4843V52.0421H3.28618C3.46707 48.2239 6.61063 45.183 10.4728 45.183V45.1781Z" fill="#465AD2"/>
</g>
<g id="Group_3">
<path id="Vector_3" d="M51.1674 16.5677C51.1674 8.71481 44.6516 2.38179 36.7322 2.67664C29.5728 2.94657 23.7215 8.73557 23.381 15.8908C23.2523 18.6317 23.9167 21.2064 25.1667 23.4115L35.0902 37.374C36.1533 38.8698 38.3743 38.8698 39.4374 37.374L49.3609 23.4115C50.5071 21.3891 51.1632 19.0594 51.1632 16.5677H51.1674Z" fill="url(#paint0_linear_88_2221)"/>
<path id="Vector_4" d="M37.2694 23.2239C40.9455 23.2239 43.9256 20.2439 43.9256 16.5678C43.9256 12.8917 40.9455 9.91162 37.2694 9.91162C33.5934 9.91162 30.6133 12.8917 30.6133 16.5678C30.6133 20.2439 33.5934 23.2239 37.2694 23.2239Z" fill="white"/>
</g>
<path id="Vector_5" d="M50.2928 43.731H29.168V48.6198H50.2928V43.731Z" fill="white"/>
</g>
</g>
<defs>
<linearGradient id="paint0_linear_88_2221" x1="37.2663" y1="2.66675" x2="37.2663" y2="40.4323" gradientUnits="userSpaceOnUse">
<stop stop-color="#28CCD0"/>
<stop offset="1" stop-color="#4EB0E0"/>
</linearGradient>
</defs>
</svg>
