<svg width="65" height="64" viewBox="0 0 65 64" fill="none" xmlns="http://www.w3.org/2000/svg">
<g id="icon_02">
<g id="Group">
<path id="Vector" d="M47.9563 2.66675H15.0674C10.6491 2.66675 7.06738 6.24848 7.06738 10.6668V53.3334C7.06738 57.7517 10.6491 61.3334 15.0674 61.3334H47.9563C52.3745 61.3334 55.9563 57.7517 55.9563 53.3334V10.6667C55.9563 6.24847 52.3746 2.66675 47.9563 2.66675Z" fill="#D3E1FF"/>
<g id="Group_2">
<path id="Vector_2" d="M31.5129 34.6212C38.533 34.6212 44.224 28.9302 44.224 21.9101C44.224 14.8899 38.533 9.19897 31.5129 9.19897C24.4927 9.19897 18.8018 14.8899 18.8018 21.9101C18.8018 28.9302 24.4927 34.6212 31.5129 34.6212Z" fill="url(#paint0_linear_88_2261)"/>
<path id="Vector_3" d="M31.1373 28.0748H28.3702L23.5986 23.3032L26.3657 20.5361L29.7537 23.9241L37.0724 16.6055L39.8395 19.3726L31.1373 28.0748Z" fill="white"/>
</g>
<g id="Group_3">
<g id="Group_4">
<path id="Vector_4" d="M21.8604 40.5801H16.2969V45.469H21.8604V40.5801Z" fill="#465AD2"/>
<path id="Vector_5" d="M46.7252 40.5801H25.0234V45.469H46.7252V40.5801Z" fill="#465AD2"/>
</g>
<g id="Group_5">
<path id="Vector_6" d="M21.8604 48.8865H16.2969V53.7754H21.8604V48.8865Z" fill="#465AD2"/>
<path id="Vector_7" d="M46.7252 48.8865H25.0234V53.7754H46.7252V48.8865Z" fill="#465AD2"/>
</g>
</g>
</g>
</g>
<defs>
<linearGradient id="paint0_linear_88_2261" x1="20.0342" y1="12.8695" x2="41.7153" y2="32" gradientUnits="userSpaceOnUse">
<stop stop-color="#27CCD0"/>
<stop offset="1" stop-color="#3CAEE3"/>
</linearGradient>
</defs>
</svg>
