<svg width="65" height="64" viewBox="0 0 65 64" fill="none" xmlns="http://www.w3.org/2000/svg">
<g id="icon_04">
<g id="Group 22">
<g id="Group 21">
<g id="Group">
<path id="Vector" d="M52.8919 5.62378H10.707V56.2456H52.8919V5.62378Z" fill="#D3E1FF"/>
<path id="Vector_2" d="M42.0499 13.947H21.5439C20.6833 13.0864 20.2024 12.6055 19.3418 11.7449V2.66675H44.2477V11.7449C43.3872 12.6055 42.9062 13.0864 42.0457 13.947H42.0499Z" fill="#465AD2"/>
<g id="Group_2">
<path id="Vector_3" d="M23.4674 30.4072H17.873V38.1181H23.4674V30.4072Z" fill="white"/>
<path id="Vector_4" d="M30.8863 26.3516H25.292V38.123H30.8863V26.3516Z" fill="white"/>
<path id="Vector_5" d="M45.7242 22.6963H40.1299V38.1227H45.7242V22.6963Z" fill="white"/>
<path id="Vector_6" d="M38.3053 20.3843H32.7109V38.123H38.3053V20.3843Z" fill="white"/>
</g>
</g>
<g id="Group_3">
<g id="Group_4">
<path id="Vector_7" d="M45.4618 56.8778C50.805 56.8778 55.1365 52.5462 55.1365 47.203C55.1365 41.8598 50.805 37.5283 45.4618 37.5283C40.1186 37.5283 35.7871 41.8598 35.7871 47.203C35.7871 52.5462 40.1186 56.8778 45.4618 56.8778Z" fill="white"/>
<path id="Vector_8" d="M45.4621 59.1437C42.4039 59.1437 39.3424 57.9782 37.0146 55.6504C32.3558 50.9916 32.3558 43.411 37.0146 38.7522C41.6734 34.0934 49.2541 34.0934 53.9129 38.7522C58.5717 43.411 58.5717 50.9916 53.9129 55.6504C51.5851 57.9782 48.5236 59.1437 45.4654 59.1437H45.4621ZM45.4621 39.8008C43.5661 39.8008 41.6702 40.5215 40.2287 41.9662C37.3425 44.8524 37.3425 49.5502 40.2287 52.4364C43.1149 55.3225 47.8126 55.3225 50.6988 52.4364C53.585 49.5502 53.585 44.8524 50.6988 41.9662C49.2541 40.5215 47.3614 39.8008 45.4654 39.8008H45.4621Z" fill="url(#paint0_linear_88_2231)"/>
</g>
<path id="Vector_9" d="M53.9131 52.4379L50.6992 55.6519L56.381 61.3336L59.5949 58.1197L53.9131 52.4379Z" fill="url(#paint1_linear_88_2231)"/>
</g>
</g>
</g>
</g>
<defs>
<linearGradient id="paint0_linear_88_2231" x1="45.4637" y1="35.2581" x2="45.4637" y2="59.1437" gradientUnits="userSpaceOnUse">
<stop stop-color="#28CCD0"/>
<stop offset="1" stop-color="#4EB0E0"/>
</linearGradient>
<linearGradient id="paint1_linear_88_2231" x1="52.3062" y1="54.0449" x2="57.9879" y2="59.7266" gradientUnits="userSpaceOnUse">
<stop stop-color="#28CCD0"/>
<stop offset="1" stop-color="#4EB0E0"/>
</linearGradient>
</defs>
</svg>
