<svg width="74" height="64" viewBox="0 0 74 64" fill="none" xmlns="http://www.w3.org/2000/svg">
<g id="Group">
<path id="Vector" d="M44.729 61.824H33.2387V57.0938H44.729C52.8038 57.0938 59.3731 50.5661 59.3731 42.5424V23.3023C59.3731 13.0613 50.9889 4.73613 40.6887 4.73613H33.2387C22.9325 4.73613 14.5543 13.0672 14.5543 23.3023V42.0753H9.79395V23.3023C9.788 10.4538 20.3084 0 33.2328 0H40.6827C53.613 0 64.1275 10.4538 64.1275 23.2963V42.5365C64.1275 53.1677 55.422 61.8181 44.7231 61.8181L44.729 61.824Z" fill="#18BCE1"/>
<g id="Group_2">
<path id="Vector_2" d="M41.7309 59.2932C41.7309 61.8949 39.6126 63.9998 36.9944 63.9998C34.3762 63.9998 32.2578 61.8949 32.2578 59.2932C32.2578 56.6916 34.3762 54.5867 36.9944 54.5867C39.6126 54.5867 41.7309 56.6916 41.7309 59.2932Z" fill="#18BCE1"/>
<path id="Vector_3" d="M11.5082 46.427C5.15309 46.427 0 41.3066 0 34.9917C0 28.6769 5.15309 23.5564 11.5082 23.5564C13.204 23.5564 14.5726 24.9222 14.5726 26.6015V43.3819C14.5726 45.0671 13.1981 46.427 11.5082 46.427Z" fill="#18BCE1"/>
<path id="Vector_4" d="M62.4912 46.427C68.8463 46.427 73.9994 41.3066 73.9994 34.9917C73.9994 28.6769 68.8463 23.5564 62.4912 23.5564C60.7954 23.5564 59.4268 24.9222 59.4268 26.6015V43.3819C59.4268 45.0671 60.8013 46.427 62.4912 46.427Z" fill="#18BCE1"/>
</g>
<g id="Group_3" filter="url(#filter0_d_88_1066)">
<path id="Vector_5" d="M44.2058 13.9543H29.9307C23.6209 13.9543 18.5059 19.037 18.5059 25.3069V39.74C18.5059 46.0098 23.6209 51.0925 29.9307 51.0925H44.2058C50.5156 51.0925 55.6307 46.0098 55.6307 39.74V25.3069C55.6307 19.037 50.5156 13.9543 44.2058 13.9543Z" fill="white"/>
<g id="Group_4">
<path id="Vector_6" d="M35.2735 36.5486H31.252L34.027 33.8172C34.7159 33.1327 35.2538 32.4221 35.6147 31.705C35.9952 30.9554 36.1854 30.1601 36.1854 29.3452V29.1366C36.1854 28.6021 36.0805 28.074 35.8836 27.5786C35.6737 27.0636 35.3457 26.6073 34.9061 26.2227C34.4797 25.8511 33.9352 25.5577 33.2923 25.3426C32.6625 25.134 31.9211 25.0232 31.0814 25.0232C29.9661 25.0232 29.0018 25.2579 28.2014 25.7272C27.4273 26.1836 26.7909 26.7637 26.3186 27.4678C25.9446 28.0414 25.9709 28.5369 26.0627 28.8563C26.1808 29.2735 26.4366 29.619 26.8237 29.8863C27.2173 30.1601 27.6569 30.2709 28.0899 30.2122C28.536 30.147 28.923 29.9124 29.2051 29.5343C29.4741 29.1888 29.7562 28.928 30.0514 28.7585C30.3204 28.6086 30.6812 28.5304 31.1208 28.5304C31.5931 28.5304 31.9474 28.6151 32.1311 28.7716C32.2951 28.9084 32.3673 29.0584 32.3673 29.267V29.3583C32.3673 29.5473 32.3476 29.7298 32.3148 29.9058C32.282 30.0558 32.2229 30.2253 32.1245 30.4013C32.0196 30.5968 31.8687 30.8185 31.685 31.0532C31.4882 31.3009 31.2192 31.5942 30.8912 31.9202L26.5088 36.3139C26.2726 36.5681 26.0889 36.7898 25.9577 37.0114C25.7872 37.2917 25.6953 37.6046 25.6953 37.9306C25.6953 38.7454 26.0496 39.2018 26.3514 39.443C26.745 39.7624 27.3157 39.9123 28.0899 39.9123H35.267C35.7787 39.9123 36.2051 39.7037 36.4741 39.3321C36.6971 39.0192 36.8087 38.6477 36.8087 38.2305C36.8087 37.8132 36.6971 37.4417 36.4741 37.1288C36.2051 36.7572 35.7787 36.5486 35.267 36.5486H35.2735Z" fill="#A4E8F8"/>
<path id="Vector_7" d="M49.0238 34.4561C48.7679 34.0649 48.3415 33.8498 47.8167 33.8498H47.364V31.4704C47.364 30.7338 47.0032 30.3361 46.7014 30.134C46.0191 29.6712 45.0482 29.6517 44.3528 30.0754L45.8879 27.872C46.3078 27.2592 46.275 26.7442 46.1766 26.4183C46.0454 26.0011 45.7829 25.6621 45.3959 25.4079L45.3762 25.3948C44.9957 25.1667 44.5824 25.0754 44.1494 25.121C43.8148 25.1601 43.3425 25.3231 42.962 25.8707L37.5562 33.6412C37.4053 33.8629 37.2872 34.0389 37.2019 34.1888C37.1101 34.3518 37.0379 34.4952 36.992 34.6125C36.9329 34.7494 36.9001 34.8733 36.8805 34.9906C36.8608 35.1014 36.8477 35.2057 36.8477 35.31C36.8477 36.0793 37.1757 36.503 37.4512 36.7246C37.812 37.018 38.3303 37.1614 39.0257 37.1614H43.6049V38.3218C43.6049 39.0584 43.9657 39.4561 44.2675 39.6581C44.6217 39.8993 45.0351 40.0232 45.4877 40.0232C45.9404 40.0232 46.3537 39.8993 46.708 39.6581C47.0097 39.4561 47.3706 39.0584 47.3706 38.3218V37.1614H47.8232C48.3481 37.1614 48.7745 36.9463 49.0303 36.5551C49.2272 36.2488 49.3321 35.8967 49.3321 35.5186C49.3321 35.1406 49.2337 34.769 49.0303 34.4626L49.0238 34.4561ZM41.722 33.8498L43.6377 31.1054C43.618 31.2162 43.6049 31.34 43.6049 31.4704V33.8498H41.722Z" fill="#A4E8F8"/>
</g>
</g>
</g>
<defs>
<filter id="filter0_d_88_1066" x="16.5059" y="11.9543" width="45.125" height="45.1382" filterUnits="userSpaceOnUse" color-interpolation-filters="sRGB">
<feFlood flood-opacity="0" result="BackgroundImageFix"/>
<feColorMatrix in="SourceAlpha" type="matrix" values="0 0 0 0 0 0 0 0 0 0 0 0 0 0 0 0 0 0 127 0" result="hardAlpha"/>
<feOffset dx="2" dy="2"/>
<feGaussianBlur stdDeviation="2"/>
<feComposite in2="hardAlpha" operator="out"/>
<feColorMatrix type="matrix" values="0 0 0 0 0 0 0 0 0 0 0 0 0 0 0 0 0 0 0.1 0"/>
<feBlend mode="normal" in2="BackgroundImageFix" result="effect1_dropShadow_88_1066"/>
<feBlend mode="normal" in="SourceGraphic" in2="effect1_dropShadow_88_1066" result="shape"/>
</filter>
</defs>
</svg>
