<svg width="160" height="160" viewBox="0 0 160 160" fill="none" xmlns="http://www.w3.org/2000/svg">
<rect x="5.33334" y="9.6001" width="149.333" height="100.267" rx="9.54642" fill="white" stroke="#222222" stroke-width="3.2"/>
<rect x="58.6667" y="109.867" width="42.6667" height="25.6" fill="white" stroke="#222222" stroke-width="3.2"/>
<path d="M50.1334 135.467H109.867" stroke="#222222" stroke-width="3.2" stroke-linecap="round"/>
<path d="M52.5387 77.238C51.8943 77.238 51.2499 76.9945 50.763 76.5077L35.5699 61.2716C34.5962 60.2978 34.5962 58.7084 35.5699 57.7346L50.763 42.4842C51.7368 41.5105 53.3262 41.4962 54.3143 42.4842C55.288 43.458 55.3024 45.0474 54.3143 46.0212L40.8825 59.4959L54.3143 72.9707C55.288 73.9445 55.288 75.5339 54.3143 76.5077C53.8274 76.9945 53.1831 77.238 52.5387 77.238Z" fill="#6478F0" fill-opacity="0.4"/>
<path d="M74.6233 79.5194C74.3942 79.5194 74.1507 79.4907 73.9216 79.4191C72.5899 79.0325 71.8309 77.6435 72.2176 76.3118L82.3845 41.2716C82.7711 39.9399 84.1601 39.181 85.4919 39.5676C86.8236 39.9542 87.5825 41.3432 87.1959 42.675L77.029 77.7151C76.7139 78.8034 75.7116 79.5194 74.6233 79.5194Z" fill="#6478F0" fill-opacity="0.4"/>
<path d="M106.875 77.235C106.23 77.235 105.6 76.9916 105.099 76.5047C104.125 75.531 104.111 73.9415 105.099 72.9678L118.531 59.493L105.099 46.0182C104.125 45.0445 104.125 43.455 105.099 42.4813C106.073 41.5075 107.662 41.5075 108.65 42.4813L123.843 57.7174C124.817 58.6911 124.817 60.2806 123.843 61.2543L108.65 76.4904C108.163 76.9773 107.519 77.2207 106.875 77.2207V77.235Z" fill="#6478F0" fill-opacity="0.4"/>
<path d="M110.204 90.7372C112.784 86.3767 119.046 86.3767 121.627 90.7372L150.927 140.255C153.573 144.726 150.379 150.4 145.216 150.4H86.6146C81.4518 150.4 78.2575 144.726 80.9033 140.255L110.204 90.7372Z" fill="#6478F0"/>
<path d="M120.971 106.798L119.42 129.336H112.946L111.483 106.798H120.971Z" fill="#FCFCFF"/>
<path d="M115.98 132.691C113.539 132.691 111.483 134.7 111.483 137.227C111.483 139.689 113.539 141.698 115.98 141.633C118.357 141.698 120.413 139.689 120.349 137.227C120.413 134.7 118.357 132.691 115.98 132.691Z" fill="#FCFCFF"/>
</svg>
