<svg width="64" height="64" viewBox="0 0 64 64" fill="none" xmlns="http://www.w3.org/2000/svg">
<g id="icon_01">
<g id="Group">
<g id="Group_2">
<path id="Vector" d="M6.67255 55.1478C6.67255 58.5654 9.44508 61.3334 12.8581 61.3334H52.2315C55.6491 61.3334 58.4171 58.5609 58.4171 55.1478V27.3357H6.66797V55.1478H6.67255Z" fill="#465AD2"/>
<path id="Vector_2" d="M6.67255 50.5732C6.67255 53.9908 9.44508 56.7587 12.8581 56.7587H52.2315C55.6491 56.7587 58.4171 53.9862 58.4171 50.5732V24.5911H6.66797V50.5732H6.67255Z" fill="#D3E1FF"/>
<path id="Vector_3" d="M52.2367 8.66943H12.8633C9.44566 8.66943 6.67773 11.442 6.67773 14.855V24.5862H58.4269V14.855C58.4269 11.4374 55.6543 8.66943 52.2413 8.66943H52.2367Z" fill="url(#paint0_linear_88_2275)"/>
</g>
<g id="Group_3">
<path id="Vector_4" d="M25.3854 2.66675H17.6123V14.9967H25.3854V2.66675Z" fill="#465AD2"/>
<path id="Vector_5" d="M47.4841 2.66699H39.7109V14.9969H47.4841V2.66699Z" fill="#465AD2"/>
</g>
<path id="Vector_6" d="M29.1887 47.996L21.8809 40.517L25.8802 36.4239L30.5904 41.2446C32.2103 38.6648 34.8523 34.9686 38.6011 31.3263L40.6492 29.3335L44.5475 33.5299L42.4994 35.5226C36.5934 41.2694 33.7616 47.1567 33.7333 47.2188L29.1887 48.0002V47.996Z" fill="white"/>
</g>
</g>
<defs>
<linearGradient id="paint0_linear_88_2275" x1="6.67773" y1="16.6278" x2="117.88" y2="16.6278" gradientUnits="userSpaceOnUse">
<stop stop-color="#25CFCE"/>
<stop offset="1" stop-color="#5B82FF"/>
</linearGradient>
</defs>
</svg>
