<svg width="74" height="64" viewBox="0 0 74 64" fill="none" xmlns="http://www.w3.org/2000/svg">
<g id="Group">
<path id="Vector" d="M44.7244 61.8239H33.234V57.0933H44.7244C52.7992 57.0933 59.3686 50.5649 59.3686 42.5405V23.2985C59.3686 13.0566 50.9843 4.73067 40.684 4.73067H33.234C22.9278 4.73067 14.5495 13.0626 14.5495 23.2985V42.0734H9.78906V23.2985C9.78906 10.4489 20.3095 0 33.234 0H40.684C53.6144 0 64.129 10.4548 64.129 23.2985V42.5405C64.129 53.1727 55.4234 61.8239 44.7244 61.8239Z" fill="#B571FF"/>
<g id="Group_2">
<path id="Vector_2" d="M41.7242 59.293C41.7242 61.8948 39.6058 64 36.9876 64C34.3693 64 32.251 61.8948 32.251 59.293C32.251 56.6911 34.3693 54.5859 36.9876 54.5859C39.6058 54.5859 41.7242 56.6911 41.7242 59.293Z" fill="#B571FF"/>
<path id="Vector_3" d="M11.5083 46.4258C5.15312 46.4258 0 41.3048 0 34.9894C0 28.6739 5.15312 23.553 11.5083 23.553C13.2041 23.553 14.5728 24.919 14.5728 26.5983V43.3804C14.5728 45.0657 13.1982 46.4258 11.5083 46.4258Z" fill="#B571FF"/>
<path id="Vector_4" d="M62.4913 46.4258C68.8464 46.4258 73.9995 41.3048 73.9995 34.9894C73.9995 28.6739 68.8464 23.553 62.4913 23.553C60.7954 23.553 59.4268 24.919 59.4268 26.5983V43.3804C59.4268 45.0657 60.8013 46.4258 62.4913 46.4258Z" fill="#B571FF"/>
</g>
<g id="Group_3" filter="url(#filter0_d_88_1047)">
<path id="Vector_5" d="M44.207 13.9497H29.9318C23.6219 13.9497 18.5068 19.0329 18.5068 25.3033V39.7378C18.5068 46.0082 23.6219 51.0914 29.9318 51.0914H44.207C50.5168 51.0914 55.632 46.0082 55.632 39.7378V25.3033C55.632 19.0329 50.5168 13.9497 44.207 13.9497Z" fill="white"/>
<g id="Group_4">
<path id="Vector_6" d="M33.4254 29.0761V28.1063C33.4254 26.7995 32.3603 25.741 31.0452 25.741C29.7302 25.741 28.665 26.7995 28.665 28.1063V29.0761C28.665 30.3829 29.7302 31.4414 31.0452 31.4414C32.3603 31.4414 33.4254 30.3829 33.4254 29.0761Z" fill="#E0C4FF"/>
<path id="Vector_7" d="M43.0863 25.741C41.7712 25.741 40.7061 26.7995 40.7061 28.1063V29.0761C40.7061 30.3829 41.7712 31.4414 43.0863 31.4414C44.4013 31.4414 45.4664 30.3829 45.4664 29.0761V28.1063C45.4664 26.7995 44.4013 25.741 43.0863 25.741Z" fill="#E0C4FF"/>
<path id="Vector_8" d="M40.6122 35.9525C38.6545 37.898 35.477 37.898 33.5192 35.9525C32.704 35.1483 31.383 35.1483 30.5737 35.9525C29.7645 36.7568 29.7645 38.0695 30.5737 38.8797C32.3053 40.6004 34.6082 41.5466 37.0657 41.5466C39.5233 41.5466 41.8261 40.6004 43.5577 38.8797C44.367 38.0754 44.3729 36.7568 43.5577 35.9525C42.7425 35.1424 41.4215 35.1483 40.6122 35.9525Z" fill="#E0C4FF"/>
</g>
</g>
</g>
<defs>
<filter id="filter0_d_88_1047" x="16.5068" y="11.9497" width="45.125" height="45.1416" filterUnits="userSpaceOnUse" color-interpolation-filters="sRGB">
<feFlood flood-opacity="0" result="BackgroundImageFix"/>
<feColorMatrix in="SourceAlpha" type="matrix" values="0 0 0 0 0 0 0 0 0 0 0 0 0 0 0 0 0 0 127 0" result="hardAlpha"/>
<feOffset dx="2" dy="2"/>
<feGaussianBlur stdDeviation="2"/>
<feComposite in2="hardAlpha" operator="out"/>
<feColorMatrix type="matrix" values="0 0 0 0 0 0 0 0 0 0 0 0 0 0 0 0 0 0 0.1 0"/>
<feBlend mode="normal" in2="BackgroundImageFix" result="effect1_dropShadow_88_1047"/>
<feBlend mode="normal" in="SourceGraphic" in2="effect1_dropShadow_88_1047" result="shape"/>
</filter>
</defs>
</svg>
