<svg width="194" height="23" viewBox="0 0 194 23" fill="none" xmlns="http://www.w3.org/2000/svg">
<path d="M5.184 22.096C3.744 20.544 2.632 18.88 1.848 17.104C1.064 15.312 0.672 13.352 0.672 11.224C0.672 9.096 1.064 7.144 1.848 5.368C2.632 3.576 3.744 1.904 5.184 0.352H9.48C8.04 1.856 6.904 3.528 6.072 5.368C5.256 7.208 4.848 9.16 4.848 11.224C4.848 13.288 5.256 15.24 6.072 17.08C6.904 18.92 8.04 20.592 9.48 22.096H5.184ZM20.1883 8.776C19.0363 9.816 17.6363 10.632 15.9883 11.224C14.3563 11.816 12.6283 12.12 10.8043 12.136V8.44C12.4203 8.408 13.9163 8.08 15.2923 7.456C16.6683 6.816 17.6523 5.968 18.2443 4.912H11.1643V1.24H29.6443V4.912H22.7323C22.6683 5.136 22.5643 5.416 22.4203 5.752L30.4843 8.8L28.9483 12.16L20.1883 8.776ZM30.7723 17.368H22.4683V21.976H18.3403V17.368H10.0363V13.624H30.7723V17.368ZM31.3222 22.096C32.7622 20.592 33.8902 18.92 34.7062 17.08C35.5383 15.24 35.9543 13.288 35.9543 11.224C35.9543 9.16 35.5383 7.208 34.7062 5.368C33.8902 3.528 32.7622 1.856 31.3222 0.352H35.6183C37.0583 1.904 38.1703 3.576 38.9543 5.368C39.7383 7.144 40.1303 9.096 40.1303 11.224C40.1303 13.352 39.7383 15.312 38.9543 17.104C38.1703 18.88 37.0583 20.544 35.6183 22.096H31.3222ZM54.8466 5.56H40.8306V2.392H45.7746V0.639999H49.9026V2.392H54.8466V5.56ZM62.6706 5.752V9.688H60.2706V16.288H56.2146V0.999999H60.2706V5.752H62.6706ZM47.8386 14.584C46.6706 14.584 45.6066 14.424 44.6466 14.104C43.7026 13.784 42.9506 13.304 42.3906 12.664C41.8306 12.024 41.5506 11.256 41.5506 10.36C41.5506 9.464 41.8306 8.696 42.3906 8.056C42.9506 7.416 43.7026 6.936 44.6466 6.616C45.6066 6.296 46.6706 6.136 47.8386 6.136C49.0066 6.136 50.0626 6.296 51.0066 6.616C51.9666 6.936 52.7266 7.416 53.2866 8.056C53.8466 8.696 54.1266 9.464 54.1266 10.36C54.1266 11.256 53.8466 12.024 53.2866 12.664C52.7266 13.304 51.9666 13.784 51.0066 14.104C50.0626 14.424 49.0066 14.584 47.8386 14.584ZM47.8386 9.064C47.1186 9.064 46.5346 9.192 46.0866 9.448C45.6386 9.688 45.4146 9.992 45.4146 10.36C45.4146 10.728 45.6386 11.04 46.0866 11.296C46.5346 11.536 47.1186 11.656 47.8386 11.656C48.5586 11.656 49.1426 11.536 49.5906 11.296C50.0386 11.04 50.2626 10.728 50.2626 10.36C50.2626 9.992 50.0386 9.688 49.5906 9.448C49.1426 9.192 48.5586 9.064 47.8386 9.064ZM46.3026 17.968H60.5586V21.496H42.1746V15.184H46.3026V17.968ZM78.4605 4.432H64.3485V0.999999H82.5885V7.888H78.4605V4.432ZM75.5565 12.088V14.368H82.6845V21.736H78.5565V17.752H64.2525V14.368H71.4765V12.088H63.1485V8.68H83.8845V12.088H75.5565ZM95.4984 8.8C94.2824 10.432 92.8184 11.72 91.1064 12.664C89.4104 13.592 87.6024 14.064 85.6824 14.08V10.24C87.0424 10.24 88.3304 9.848 89.5464 9.064C90.7784 8.264 91.8184 7.16 92.6664 5.752C93.5144 4.328 94.0584 2.72 94.2984 0.927999L98.4264 1.576C98.2344 2.984 97.8584 4.336 97.2984 5.632L106.034 10.888L103.898 14.176L95.4984 8.8ZM85.2744 16.984H106.01V20.776H85.2744V16.984ZM128.136 17.032V20.776H107.4V17.032H115.728V13.816H108.336V10.12H111.456V5.2H108.552V1.48H126.984V5.2H124.08V10.12H127.2V13.816H119.808V17.032H128.136ZM115.512 10.12H120.024V5.2H115.512V10.12ZM139.846 10.96C138.726 12.16 137.318 13.096 135.622 13.768C133.926 14.424 132.102 14.752 130.15 14.752V11.008C131.286 11.008 132.366 10.824 133.39 10.456C134.43 10.088 135.326 9.568 136.078 8.896C136.846 8.224 137.39 7.44 137.71 6.544H130.582V2.824H137.782V0.735999H141.958V2.824H149.206V6.544H142.126C142.014 7.056 141.886 7.504 141.742 7.888L150.022 11.488L148.294 14.848L139.846 10.96ZM150.262 17.032V20.776H129.526V17.032H150.262ZM172.052 0.999999V21.496H168.26V0.999999H172.052ZM163.1 1.096H166.844V21.136H163.1V12.544H161.444V8.704H163.1V1.096ZM157.316 17.08C158.148 17.08 158.996 17.024 159.86 16.912C160.74 16.784 161.484 16.608 162.092 16.384V19.792C161.516 20.032 160.748 20.216 159.788 20.344C158.828 20.472 157.884 20.536 156.956 20.536H152.012V9.28H156.836V4.936H152.012V1.48H160.58V12.688H155.78V17.08H157.316ZM193.698 0.999999V21.496H189.642V11.752H185.562V7.96H189.642V0.999999H193.698ZM183.114 5.2C183.066 6.96 182.906 8.632 182.634 10.216L188.61 18.112L185.322 20.392L181.242 14.776C180.426 16.616 179.386 18.032 178.122 19.024C176.874 20.016 175.474 20.52 173.922 20.536V16.456C174.914 16.344 175.786 15.816 176.538 14.872C177.29 13.912 177.882 12.608 178.314 10.96C178.746 9.296 178.986 7.376 179.034 5.2H174.498V1.48H187.482V5.2H183.114Z" fill="#3E3E6D"/>
</svg>
